<?xml version="1.0" standalone="no"?><!DOCTYPE svg PUBLIC "-//W3C//DTD SVG 1.1//EN" "http://www.w3.org/Graphics/SVG/1.1/DTD/svg11.dtd"><svg t="1558854861770" class="icon" style="" viewBox="0 0 1024 1024" version="1.1" xmlns="http://www.w3.org/2000/svg" p-id="6018" xmlns:xlink="http://www.w3.org/1999/xlink" width="200" height="200"><defs><style type="text/css"></style></defs><path d="M537.82 858.87c170.81-7 302.29-278.68 302.64-446.27S736 100 570.08 91.3 236.7 195.5 241.81 363c7.31 239.33 152.08 243 209.42 337.32s24.52 161.08 86.59 158.55z" fill="#FFA200" p-id="6019"></path><path d="M583.73 822.86C747 802.77 852 531.81 839.38 371S715 79.28 555.2 84 243.52 210.17 261.39 370.48c25.5 229 164.64 221.14 227 307.1s36.02 152.58 95.34 145.28z" fill="#FFCE2E" p-id="6020"></path><path d="M650 658.3a52.15 52.5 0 1 0 104.3 0 52.15 52.5 0 1 0-104.3 0Z" fill="#FFE387" p-id="6021"></path><path d="M530.75 684.8a26.32 26.5 0 1 0 52.64 0 26.32 26.5 0 1 0-52.64 0Z" fill="#FFE387" p-id="6022"></path><path d="M708.54 535.8a25.33 25.5 0 1 0 50.66 0 25.33 25.5 0 1 0-50.66 0Z" fill="#FFE387" p-id="6023"></path><path d="M623.58 740.5a17.72 17.84 0 1 0 35.44 0 17.72 17.84 0 1 0-35.44 0Z" fill="#FFE387" p-id="6024"></path><path d="M593.52 136a112.3 112.3 0 0 1 41.48 5.79A105.51 105.51 0 0 1 667.79 160a12 12 0 0 1 2.3 16 9.23 9.23 0 0 1-12.74 2.4c-0.16-0.15-0.42-0.27-0.58-0.42a103.85 103.85 0 0 0-30.08-17.15 108.09 108.09 0 0 0-35.32-6.41 8 8 0 0 1-7.88-8.19v-0.54a10.27 10.27 0 0 1 10.03-9.69z" fill="#FFFFFF" p-id="6025"></path><path d="M685.22 188.85m-12.5 0a12.5 12.5 0 1 0 25 0 12.5 12.5 0 1 0-25 0Z" fill="#FFFFFF" p-id="6026"></path><path d="M548 498c98.5 0 101.5-127 0-127s-98.5 127 0 127z" fill="#E3530E" p-id="6027"></path><path d="M548 367c56.1 0 116.44 57 0 57s-56.1-57 0-57z" fill="#FFFFFF" p-id="6028"></path><path d="M328.16 360m-141 0a141 141 0 1 0 282 0 141 141 0 1 0-282 0Z" fill="#F7EEE8" p-id="6029"></path><path d="M344.82 349m-120.5 0a120.5 120.5 0 1 0 241 0 120.5 120.5 0 1 0-241 0Z" fill="#FFFFFF" p-id="6030"></path><path d="M400.16 319m-30 0a30 30 0 1 0 60 0 30 30 0 1 0-60 0Z" fill="#552300" p-id="6031"></path><path d="M791 360m-141 0a141 141 0 1 0 282 0 141 141 0 1 0-282 0Z" fill="#F7EEE8" p-id="6032"></path><path d="M774.34 349m-120.5 0a120.5 120.5 0 1 0 241 0 120.5 120.5 0 1 0-241 0Z" fill="#FFFFFF" p-id="6033"></path><path d="M719 319m-30 0a30 30 0 1 0 60 0 30 30 0 1 0-60 0Z" fill="#552300" p-id="6034"></path></svg>